<svg width="479" height="407" viewBox="0 0 479 407" fill="none" xmlns="http://www.w3.org/2000/svg">
<path d="M478.274 285.255L236.021 406.611L0.726074 288.73V280.203L478.276 276.728L478.274 285.255Z" fill="#BDAF9B"/>
<path d="M478.274 276.728L236.021 398.083L0.726074 280.203L242.979 158.847L478.274 276.728Z" fill="#FFFAF2"/>
<path d="M0.726074 288.73V280.203L236.021 398.083V406.611L0.726074 288.73Z" fill="#CFC2AF"/>
<path d="M242.979 158.829L0.724121 280.203V121.763L242.979 0.388885V158.829Z" fill="#EBC6B7"/>
<path d="M478.276 276.728L242.979 158.829V0.388885L478.276 118.288V276.728Z" fill="#F2D8CD"/>
<path d="M242.979 167.132L8.95361 284.628V126.188L242.979 8.69207V167.132Z" fill="#D1B0A3"/>
<path d="M470.175 281.152L242.979 167.132V8.69207L470.175 122.713V281.152Z" fill="#E3CBC1"/>
<path d="M470.174 281.152L478.274 276.728L478.276 118.288L470.174 122.713V281.152Z" fill="#D1BBB2"/>
<path d="M0.724121 121.763L8.95344 126.188V284.628L0.726153 280.203L0.724121 121.763Z" fill="#B89B8F"/>
<path opacity="0.1" d="M38.8865 289.441L77.3765 280.737L97.4097 275.344L110.134 281.587L96.4613 286.578L96.6074 288.472L120.872 279.73L150.341 271.387C151.844 270.961 152.08 268.928 150.716 268.168L150.689 268.152C150.328 267.951 149.907 267.884 149.5 267.963L134.201 270.958C132.607 271.27 130.956 270.945 129.599 270.053L113.967 259.782L102.972 261.783L96.0018 266.79L83.4352 257.401L77.0773 278.466L83.6675 256.63L96.1722 246.764L102.68 251.608L100.835 244.565L110.713 233.539L104.069 230.111L36.3091 260.898L38.8865 289.441Z" fill="black"/>
<path d="M18.2368 242.818L41.3536 295.012L44.4625 293.225V255.928L18.2368 242.818Z" fill="#B8CBD4"/>
<path d="M115.695 224.301L41.3536 261.447L15.1279 248.317V244.27L89.4697 211.173L115.695 220.254V224.301Z" fill="#B8CBD4"/>
<path d="M115.695 220.254L41.3536 257.4L15.1279 244.27L89.4697 207.126L115.695 220.254Z" fill="#F0F5F7"/>
<path d="M15.1279 244.27V281.903L41.3536 295.012V257.38L15.1279 244.27Z" fill="#D3DEE3"/>
<path d="M77.5787 280.761C77.5117 280.761 77.4437 280.753 77.3768 280.736C76.9275 280.624 76.6546 280.17 76.7662 279.72L82.7203 255.689C82.8319 255.241 83.2843 254.966 83.7347 255.078C84.183 255.19 84.4569 255.645 84.3453 256.094L78.3911 280.126C78.2968 280.507 77.955 280.761 77.5787 280.761Z" fill="#7E9DAB"/>
<path d="M96.6075 288.471C96.15 288.471 95.7758 288.102 95.7707 287.642L95.4786 262.724C95.4735 262.261 95.8437 261.881 96.3063 261.876C96.3093 261.876 96.3134 261.876 96.3164 261.876C96.7739 261.876 97.1482 262.245 97.1532 262.705L97.4454 287.623C97.4504 288.086 97.0802 288.465 96.6177 288.471C96.6146 288.471 96.6106 288.471 96.6075 288.471Z" fill="#7E9DAB"/>
<path d="M117.541 279.239C117.148 279.239 116.798 278.962 116.72 278.561L111.965 254.149C111.877 253.694 112.173 253.254 112.626 253.166C113.079 253.076 113.52 253.373 113.608 253.828L118.363 278.24C118.451 278.694 118.156 279.134 117.702 279.223C117.648 279.234 117.594 279.239 117.541 279.239Z" fill="#7E9DAB"/>
<path d="M117.211 257.476L97.3015 267.442L79.9664 258.732C78.9541 258.225 78.5484 255.692 79.5607 255.187L96.1735 248.16C96.9586 247.767 97.8816 247.767 98.6667 248.16L117.211 257.476Z" fill="#DAE5EB"/>
<path d="M118.699 256.823L98.7893 266.789L79.9653 257.335C78.953 256.828 78.953 255.383 79.9653 254.876L96.1714 246.763C96.9564 246.37 97.8795 246.37 98.6646 246.763L118.699 256.823Z" fill="#F8FDFF"/>
<path d="M118.25 256.355L97.4102 266.789L100.836 244.564C101.017 243.314 101.797 242.232 102.925 241.668L118.978 233.63C120.238 232.999 122.678 234.279 122.475 235.675L118.25 256.355Z" fill="#DAE5EB"/>
<path d="M117.451 258.036L98.6655 267.442L102.091 245.217C102.273 243.967 103.053 242.885 104.18 242.321L120.233 234.283C121.493 233.652 122.943 234.699 122.74 236.095L119.835 254.732C119.629 256.158 118.738 257.392 117.451 258.036Z" fill="#B8CBD4"/>
<path d="M97.3013 267.442C97.3013 267.442 98.2162 268.002 98.6656 267.442L99.0165 265.021L97.7344 264.549C97.7344 264.549 97.2019 266.071 94.4297 264.606L97.3013 267.442Z" fill="#DAE5EB"/>
<path opacity="0.73" d="M31.2983 239.489L56.4752 249.882L82.9514 236.624L58.375 226.362L31.2983 239.489Z" fill="white"/>
<path opacity="0.73" d="M61.603 224.308L86.7799 234.701L111.146 222.514L86.5699 212.252L61.603 224.308Z" fill="white"/>
<path opacity="0.1" d="M148.357 231.887L203.679 227.995L259.835 199.482L213.37 184.29L148.357 231.887Z" fill="black"/>
<path d="M182.228 214.93L216.097 197.976V179.414L182.228 196.368V214.93Z" fill="#B8CBD4"/>
<path d="M183.072 196.891L215.252 180.783V197.452L183.072 213.56V196.891ZM215.011 181.174L183.314 197.04V213.17L215.011 197.304V181.174Z" fill="#A1B3BA"/>
<path d="M182.227 196.373L216.097 179.424L198.622 170.901L164.751 187.85L182.227 196.373Z" fill="#F0F5F7"/>
<path d="M164.751 206.41L182.227 214.934V196.373L164.751 187.847V206.41Z" fill="#9E9E9E"/>
<path d="M196.229 194.275L201.13 191.807V189.568L196.229 192.034V194.275Z" fill="white"/>
<path d="M200.388 190.238L200.758 190.052V191.693L196.6 193.79V193.376L200.388 191.464V190.238Z" fill="#868C8F"/>
<path d="M200.388 190.238V191.464L196.6 193.376V192.149L200.388 190.238Z" fill="#5C6266"/>
<path d="M182.228 196.07L216.097 179.115V160.554L182.228 177.508V196.07Z" fill="#B8CBD4"/>
<path d="M183.072 178.031L215.252 161.923V178.592L183.072 194.7V178.031ZM215.011 162.314L183.314 178.18V194.31L215.011 178.444V162.314Z" fill="#A1B3BA"/>
<path d="M182.227 177.513L216.097 160.563L198.622 152.041L164.751 168.989L182.227 177.513Z" fill="#F0F5F7"/>
<path d="M164.751 187.55L182.227 196.074V177.512L164.751 168.987V187.55Z" fill="#9E9E9E"/>
<path d="M196.229 175.415L201.13 172.947V170.707L196.229 173.174V175.415Z" fill="white"/>
<path d="M200.388 171.377L200.758 171.192V172.833L196.6 174.929V174.515L200.388 172.604V171.377Z" fill="#868C8F"/>
<path d="M200.388 171.377V172.604L196.6 174.515V173.288L200.388 171.377Z" fill="#5C6266"/>
<path d="M148.357 231.882L182.228 214.928V196.366L148.357 213.32V231.882Z" fill="#B8CBD4"/>
<path d="M149.202 213.843L181.382 197.736V214.405L149.202 230.513V213.843ZM181.141 198.127L149.444 213.993V230.123L181.141 214.257V198.127Z" fill="#A1B3BA"/>
<path d="M148.357 213.325L182.228 196.376L164.752 187.853L130.882 204.802L148.357 213.325Z" fill="#F0F5F7"/>
<path d="M130.881 223.362L148.357 231.887V213.324L130.881 204.8V223.362Z" fill="#D3DEE3"/>
<path d="M162.36 211.227L167.259 208.76V206.519L162.36 208.987V211.227Z" fill="white"/>
<path d="M166.519 207.19L166.889 207.005V208.645L162.73 210.742V210.328L166.519 208.416V207.19Z" fill="#868C8F"/>
<path d="M166.519 207.19V208.416L162.73 210.328V209.101L166.519 207.19Z" fill="#5C6266"/>
<path d="M148.357 213.022L182.228 196.068V177.506L148.357 194.46V213.022Z" fill="#B8CBD4"/>
<path d="M181.382 178.875V195.544L149.203 211.652V194.982L181.382 178.875ZM181.141 179.266L149.444 195.132V211.262L181.141 195.396V179.266Z" fill="#A1B3BA"/>
<path d="M148.357 194.465L182.228 177.516L164.752 168.992L130.882 185.942L148.357 194.465Z" fill="#F0F5F7"/>
<path d="M130.881 204.501L148.357 213.026V194.464L130.881 185.939V204.501Z" fill="#D3DEE3"/>
<path d="M162.36 192.366L167.259 189.899V187.658L162.36 190.126V192.366Z" fill="white"/>
<path d="M166.519 188.33L166.889 188.144V189.785L162.73 191.882V191.468L166.519 189.555V188.33Z" fill="#868C8F"/>
<path d="M166.519 188.33V189.555L162.73 191.468V190.241L166.519 188.33Z" fill="#5C6266"/>
<path d="M127.734 167.65L201.898 130.554V86.9762L127.734 124.072V167.65Z" fill="#A8D9F9"/>
<path d="M127.735 124.072L125.542 123.121V166.698L127.735 167.65V124.072Z" fill="#7FC0EB"/>
<path d="M201.898 86.9762L199.705 86.0246L125.542 123.121L127.735 124.072L201.898 86.9762Z" fill="#D9EFFF"/>
<path opacity="0.1" d="M127.734 167.65L144.222 179.266L175.679 180.783L216.097 160.563L198.622 152.041V132.034L127.734 167.65Z" fill="black"/>
<path d="M201.898 86.9762L137.403 162.752L201.898 130.554V86.9762Z" fill="#93CAED"/>
<path opacity="0.08" d="M315.541 314.719L360.627 317.704L436.876 292.008L452.895 289.441L470.174 281.152L412.007 256.629L315.541 314.719Z" fill="black"/>
<path d="M412.267 268.923L339.994 232.922V215.636L412.267 251.637V268.923Z" fill="#D3DEE3"/>
<path d="M412.267 251.642L339.994 215.645L356.268 207.707L428.541 243.706L412.267 251.642Z" fill="#F0F5F7"/>
<path d="M428.541 260.989L412.267 268.927V251.641L428.541 243.703V260.989Z" fill="#BABABA"/>
<path d="M443.549 284.587L412.007 268.798V251.512L443.549 267.3V284.587Z" fill="#D3DEE3"/>
<path d="M442.762 283.311L412.794 268.311V252.787L442.762 267.787V283.311ZM413.02 268.172L442.538 282.947V267.927L413.02 253.152V268.172Z" fill="#A1B3BA"/>
<path d="M443.549 267.305L412.007 251.522L428.281 243.585L459.823 259.369L443.549 267.305Z" fill="#F0F5F7"/>
<path d="M459.823 276.651L443.549 284.59V267.304L459.823 259.366V276.651Z" fill="#A1B3BA"/>
<path d="M430.51 265.351L425.947 263.053V260.967L430.51 263.265V265.351Z" fill="white"/>
<path d="M426.637 261.592L426.292 261.419V262.947L430.165 264.899V264.514L426.637 262.734V261.592Z" fill="#868C8F"/>
<path d="M426.637 261.592V262.734L430.165 264.514V263.372L426.637 261.592Z" fill="#5C6266"/>
<path opacity="0.08" d="M409.515 250.266L427.214 271.18L443.549 281.152V284.59L409.534 267.656V258.875L357.554 231.58H371.398L409.515 250.266Z" fill="black"/>
<path d="M315.559 314.718L251.697 282.741V273.96L315.559 305.937V314.718Z" fill="#D3DEE3"/>
<path d="M315.559 305.93L251.698 273.961L345.653 226.927L409.515 258.895L315.559 305.93Z" fill="#F3F8FA"/>
<path d="M409.534 267.656L315.541 314.719V305.938L409.534 258.875V267.656Z" fill="#A1B3BA"/>
<path opacity="0.04" d="M260.921 273.122C260.921 273.122 258.302 274.871 260.921 276.037C263.54 277.203 312.013 303.464 315.541 303.819C319.069 304.173 323.763 301.822 323.763 301.822L409.534 258.875L404.36 256.315L260.921 273.122Z" fill="black"/>
<path d="M260.767 263.364C258.652 264.478 258.654 267.791 258.882 269.814C259.548 275.707 267.31 277.77 271.972 280.103C278.21 283.226 284.447 286.349 290.684 289.471C298.276 293.271 305.868 297.071 313.46 300.872V240.957L260.767 263.364Z" fill="#D3DEE3"/>
<path d="M313.46 240.957V300.872L314.153 301.22C315.757 302.023 317.646 302.023 319.249 301.22L320.356 300.665V238.024L313.46 240.957Z" fill="#FCFCFC"/>
<path d="M403.117 248.271L349.643 227.737C348.039 226.934 346.151 226.934 344.547 227.737L320.357 238.024V300.665C325.653 298.015 330.948 295.364 336.243 292.713C347.243 287.207 358.243 281.701 369.243 276.195C378.643 271.49 388.043 266.785 397.444 262.079C399.925 260.837 403.219 259.956 404.341 257.12C405.153 255.064 405.754 249.347 403.117 248.271Z" fill="#D3DEE3"/>
<path d="M314.153 294.915L260.824 268.218C258.817 267.214 258.817 264.347 260.824 263.342L344.546 221.433C346.15 220.629 348.038 220.629 349.642 221.433L402.972 248.13C404.978 249.134 404.978 252.002 402.972 253.006L319.249 294.915C317.646 295.719 315.758 295.719 314.153 294.915Z" fill="white"/>
<path d="M397.975 257.321C397.964 254.484 393.822 252.698 393.473 252.553L341.439 226.295L341.447 226.291C341.447 226.291 339.043 224.932 337.864 224.436C337.574 224.314 337.247 224.327 336.966 224.468L264.035 260.977C263.869 261.061 263.742 261.205 263.687 261.382C263.64 261.53 263.618 261.719 263.686 261.919C263.686 261.919 264.485 261.627 265.517 261.973L320.188 289.527L320.17 289.536C323.843 291.262 323.43 294.677 323.43 294.677C323.43 294.677 322.953 296.393 323.74 296.253C324.527 296.113 397.327 259.527 397.327 259.527C397.327 259.527 398.048 259.002 397.992 257.313L397.975 257.321Z" fill="#8EC3DE"/>
<path opacity="0.08" d="M335.679 229.275C335.679 229.275 336.645 231.791 340.768 233.879C344.891 235.968 356.388 241.699 358.911 241.261C361.433 240.825 373.159 235.898 373.367 234.656C373.575 233.414 372.251 232.713 372.251 232.713L335.679 229.275Z" fill="black"/>
<path d="M335.679 229.275C334.451 228.253 334.689 226.292 336.121 225.585C338.69 224.317 343.529 220.785 350.35 220.531C359.829 220.179 372.525 229.4 373.534 232.309C374.358 234.685 361.25 240.875 357.239 239.925C354.063 239.173 340.443 233.237 335.679 229.275Z" fill="white"/>
<path opacity="0.02" d="M335.69 226.789C335.744 226.765 336.797 228.251 336.94 228.383C337.51 228.905 338.243 229.244 338.922 229.597C339.987 230.148 341.058 230.688 342.13 231.226C344.987 232.657 347.856 234.065 350.748 235.425C351.989 236.009 353.234 236.586 354.493 237.129C355.219 237.443 355.977 237.819 356.753 237.993C356.809 238.006 356.865 238.019 356.921 238.025C358.619 238.204 362.936 237.669 364.101 237.135C365.438 236.522 366.735 235.801 368.02 235.087C368.855 234.623 369.685 234.147 370.494 233.64C371.113 233.252 372.393 232.643 372.517 231.861C372.551 231.643 372.634 231.494 372.784 231.743C373.417 232.8 372.551 233.714 371.72 234.373C369.365 236.241 366.405 237.274 363.616 238.299C360.891 239.299 357.678 240.146 354.932 238.736C351.901 237.179 348.731 235.882 345.637 234.456C342.102 232.827 338.356 231.418 335.657 228.483C335.505 228.317 335.353 228.142 335.264 227.936C335.098 227.548 335.289 226.975 335.69 226.789Z" fill="black"/>
<path opacity="0.08" d="M362.845 243.035C362.845 243.035 363.811 245.551 367.934 247.639C372.057 249.727 383.555 255.459 386.077 255.021C388.599 254.584 400.325 249.658 400.533 248.416C400.741 247.174 399.417 246.473 399.417 246.473L362.845 243.035Z" fill="black"/>
<path d="M362.845 243.035C361.617 242.013 361.855 240.052 363.287 239.345C365.857 238.077 370.696 234.545 377.516 234.291C386.995 233.939 399.691 243.159 400.7 246.069C401.524 248.444 388.416 254.635 384.405 253.685C381.229 252.933 367.608 246.997 362.845 243.035Z" fill="white"/>
<path opacity="0.02" d="M362.856 240.548C362.91 240.525 363.963 242.011 364.106 242.143C364.676 242.665 365.409 243.004 366.089 243.356C367.154 243.908 368.225 244.448 369.297 244.985C372.154 246.416 375.023 247.825 377.915 249.185C379.157 249.769 380.401 250.346 381.66 250.889C382.386 251.203 383.144 251.578 383.92 251.753C383.976 251.765 384.032 251.778 384.088 251.785C385.786 251.963 390.103 251.429 391.268 250.895C392.605 250.282 393.902 249.561 395.187 248.847C396.022 248.382 396.852 247.907 397.661 247.399C398.279 247.011 399.56 246.403 399.684 245.621C399.718 245.403 399.802 245.254 399.951 245.502C400.585 246.56 399.718 247.474 398.888 248.133C396.532 250.001 393.572 251.034 390.783 252.059C388.059 253.059 384.845 253.906 382.099 252.495C379.068 250.938 375.898 249.642 372.804 248.216C369.269 246.587 365.522 245.177 362.824 242.241C362.671 242.076 362.521 241.902 362.431 241.695C362.264 241.309 362.455 240.735 362.856 240.548Z" fill="black"/>
<path opacity="0.08" d="M265.384 260.641C265.384 260.641 264.317 260.933 264.099 261.102C263.88 261.272 263.71 261.758 263.88 261.734C264.05 261.71 264.874 261.418 265.263 261.516C265.651 261.613 285.03 271.205 285.03 271.205L305.308 281.38L321.777 289.563C321.777 289.563 324.251 291.117 324.153 294.615C324.153 294.615 323.571 295.562 323.717 295.732C323.862 295.901 324.251 295.814 324.664 295.517L396.071 259.427C396.071 259.427 397.818 258.36 396.459 255.446C396.459 255.446 330.82 290.705 326.119 290.317C324.376 290.172 265.384 260.641 265.384 260.641Z" fill="black"/>
<path opacity="0.08" d="M452.836 226.51C448.525 228.47 449.346 230.708 449.729 231.388C448.53 232.666 447.493 233.965 446.622 235.18C446.251 235.008 445.856 234.873 445.447 234.762C445.833 232.794 446.232 230.649 446.52 228.811C446.821 228.535 447.121 228.256 447.395 227.989C448.386 228.162 449.534 228.142 449.924 227.178C450.316 226.212 449.672 224.862 448.753 224.487C447.272 223.884 445.102 224.02 443.617 224.553C442.154 225.079 441.633 226.821 442.98 227.636C443.605 228.013 444.379 228.061 445.033 228.009C444.961 229.002 444.822 230.174 444.56 230.544C444.56 230.544 445.131 230.057 445.84 229.424C445.569 231.078 445.227 232.914 444.891 234.626C444.297 234.51 443.694 234.467 443.117 234.496C442.495 232.433 441.862 230.864 441.338 229.741C442.237 229.12 442.443 227.485 439.705 225.676C439.705 225.676 437.308 224.252 434.389 224.963C431.469 225.674 429.986 226.73 428.805 226.095C428.805 226.095 431.525 228.937 433.326 229.168C435.126 229.4 436.459 228.361 437.278 228.872C438.038 229.346 439.674 230.197 440.798 229.958C441.303 231.043 441.919 232.559 442.527 234.545C442.275 234.582 442.033 234.636 441.802 234.707C441.407 234.83 441.096 235.002 440.843 235.198L440.829 235.189C440.797 235.215 440.769 235.245 440.737 235.271C440.715 235.29 440.694 235.308 440.672 235.329C437.595 237.962 436.637 243.831 436.385 248.442C433.978 250.087 432.437 251.49 432.437 251.49L432.44 251.491C432.149 251.766 432.08 252.134 432.294 252.567C432.777 253.54 434.532 254.519 436.452 254.961C436.777 255.036 437.106 255.099 437.436 255.141C438.3 255.249 439.034 255.213 439.583 255.068L439.585 255.069C439.585 255.069 442.938 254.15 446.611 252.743C447.683 250.165 448.917 246.635 449.334 243.301C449.625 240.967 449.516 238.73 448.661 236.983C448.65 236.957 448.638 236.931 448.625 236.905C448.607 236.868 448.592 236.83 448.573 236.793L448.557 236.794C448.402 236.514 448.185 236.233 447.87 235.963C447.65 235.774 447.396 235.606 447.128 235.449C447.981 234.264 448.994 233.001 450.162 231.76C458.085 236.103 460.448 222.388 460.448 222.388C460.253 223.565 457.989 224.169 452.836 226.51Z" fill="black"/>
<path d="M440.335 235.321L436.38 236.461L432.425 235.321C427.82 240.878 432.072 255.427 432.072 255.427H432.075C432.231 255.934 432.631 256.42 433.281 256.812C434.992 257.843 437.767 257.843 439.478 256.812C440.128 256.42 440.528 255.934 440.684 255.427H440.687C440.687 255.427 444.94 240.877 440.335 235.321Z" fill="white"/>
<path d="M439.479 234.651C441.19 235.6 441.19 237.136 439.479 238.085C437.768 239.033 434.994 239.033 433.282 238.085C431.571 237.136 431.571 235.6 433.282 234.651C434.994 233.703 437.768 233.703 439.479 234.651Z" fill="#E3E3E3"/>
<path d="M439.044 234.892C440.514 235.706 440.514 237.029 439.044 237.843C437.573 238.657 435.188 238.657 433.717 237.843C432.247 237.029 432.247 235.706 433.717 234.892C435.188 234.077 437.573 234.077 439.044 234.892Z" fill="#5E5E5E"/>
<g opacity="0.05">
<path d="M440.69 237.449C442.713 243.703 439.026 252.788 439.026 252.788H439.023C438.876 253.267 438.498 253.725 437.883 254.096C436.266 255.071 434.219 255.73 432.602 254.755C432.448 254.662 432.308 254.563 432.185 254.461C432.289 254.859 432.354 255.082 432.354 255.082H432.357C432.505 255.561 432.882 256.019 433.497 256.39C435.114 257.365 437.736 257.365 439.353 256.39C439.968 256.019 440.345 255.561 440.493 255.082H440.496C440.496 255.082 444.023 242.914 440.69 237.449Z" fill="black"/>
</g>
<path d="M434.856 225.92C434.856 225.92 435.476 229.25 435.143 230.014C435.143 230.014 438.429 225.778 438.238 225.392C438.048 225.007 434.856 225.92 434.856 225.92Z" fill="#547A36"/>
<path d="M440.549 229.975C440.549 229.975 437.857 227.725 442.429 224.387C447.002 221.049 449.098 220 449.05 218.807C449.05 218.807 449.528 233.082 440.549 229.975Z" fill="#6FA348"/>
<path d="M429.401 226.232C429.401 226.232 426.766 225.324 424.052 226.612C421.336 227.9 420.098 229.235 418.812 228.853C418.812 228.853 422.051 231.085 423.862 230.946C425.671 230.808 426.768 229.521 427.673 229.855C428.578 230.189 430.579 230.761 431.579 230.093C432.578 229.425 432.75 227.569 429.401 226.232Z" fill="#6FA348"/>
<path d="M436.368 226.913C436.368 226.913 434.49 228.011 433.006 227.487C431.522 226.963 431.68 225.151 433.006 224.34C434.352 223.518 436.45 222.944 438.021 223.235C438.997 223.416 439.9 224.608 439.712 225.633C439.454 227.041 437.43 226.994 436.368 226.913Z" fill="#6FA348"/>
<path d="M436.865 234.261C436.835 230.901 436.74 226.949 436.472 224.875L435.905 224.949C436.17 226.995 436.264 230.908 436.293 234.247C436.304 235.578 436.306 236.818 436.303 237.813C436.372 237.968 436.44 238.125 436.509 238.286C436.615 237.953 436.737 237.587 436.876 237.194C436.877 236.328 436.874 235.324 436.865 234.261Z" fill="#6FA348"/>
<path d="M444.466 224.519C441.402 227.587 439.319 231.325 437.975 234.405C437.53 235.424 437.167 236.369 436.876 237.195C436.738 237.588 436.615 237.954 436.509 238.287C436.527 238.33 436.546 238.374 436.565 238.418C436.668 238.416 436.77 238.411 436.873 238.405C436.94 238.401 437.008 238.395 437.075 238.39C437.405 237.363 437.883 236.03 438.534 234.547C439.855 231.537 441.891 227.907 444.87 224.923L444.466 224.519Z" fill="#6FA348"/>
<path d="M436.304 237.814C435.75 236.553 435.199 235.428 434.668 234.431C432.319 230.021 430.354 228.103 430.243 227.996L429.848 228.41C429.874 228.435 431.794 230.316 434.096 234.588C434.693 235.697 435.316 236.968 435.939 238.409C436.059 238.415 436.181 238.419 436.303 238.42C436.358 238.42 436.413 238.42 436.468 238.42C436.481 238.376 436.497 238.333 436.511 238.288C436.441 238.126 436.372 237.969 436.304 237.814Z" fill="#6FA348"/>
<path d="M436.467 238.418C436.5 238.418 436.532 238.418 436.565 238.417C436.547 238.374 436.528 238.33 436.51 238.287C436.494 238.33 436.48 238.375 436.467 238.418Z" fill="#E3E3E3"/>
<path opacity="0.08" d="M213.37 380.604L245.737 377.496L265.384 368.754L234.823 351.729L213.37 380.604Z" fill="black"/>
<path opacity="0.08" d="M244.249 383.524L250.703 382.109L247.492 380.675C247.492 380.675 247.05 379.362 248.189 379.069L299.335 366.365L270.913 380.603L259.436 386.352L253.925 383.547L246.229 385.235C246.919 385.956 243.328 382.855 244.249 383.524Z" fill="black"/>
<path d="M143.332 329.253C145.412 330.295 145.412 331.983 143.332 333.025C141.251 334.066 137.878 334.066 135.797 333.025C133.717 331.983 133.717 330.295 135.797 329.253C137.879 328.212 141.251 328.212 143.332 329.253Z" fill="#396783"/>
<path d="M139.566 329.613H134.237V331.139H144.893V329.613H139.566Z" fill="#396783"/>
<path d="M143.332 327.727C145.412 328.769 145.412 330.457 143.332 331.499C141.251 332.541 137.878 332.541 135.797 331.499C133.717 330.457 133.717 328.769 135.797 327.727C137.879 326.686 141.251 326.686 143.332 327.727Z" fill="#4F8FB6"/>
<path d="M140.392 329.376C140.85 329.605 140.85 329.976 140.392 330.205C139.935 330.433 139.194 330.433 138.737 330.205C138.279 329.976 138.279 329.606 138.737 329.376C139.194 329.148 139.936 329.148 140.392 329.376Z" fill="#396783"/>
<path d="M139.566 312.939H138.395V329.79H140.735V312.939H139.566Z" fill="#396783"/>
<path d="M140.392 312.525C140.85 312.753 140.85 313.125 140.392 313.354C139.935 313.582 139.194 313.582 138.737 313.354C138.279 313.125 138.279 312.754 138.737 312.525C139.194 312.296 139.936 312.296 140.392 312.525Z" fill="white"/>
<path d="M144.651 320.365V263.886L140.881 264.239L140.404 317.558C137.154 316.909 134.895 318.26 134.895 318.26L143.068 322.235C143.068 322.235 144.605 321.446 144.651 320.365Z" fill="#467EA2"/>
<path d="M143.067 322.235L134.894 318.26V261.782L143.067 265.756V322.235Z" fill="#35607A"/>
<path d="M134.894 261.782C134.894 261.782 138.2 259.794 142.574 261.782C146.947 263.769 143.068 265.756 143.068 265.756L134.894 261.782Z" fill="#4F8FB6"/>
<path d="M213.37 380.6L139.565 344.069V322.859L213.37 359.39V380.6Z" fill="#D3DEE3"/>
<path d="M213.369 359.396L139.565 322.87L166.082 309.731L239.885 346.257L213.369 359.396Z" fill="#F0F5F7"/>
<path d="M239.886 367.462L213.37 380.604V359.395L239.886 346.254V367.462Z" fill="#A1B3BA"/>
<path d="M246.662 383.631C248.743 384.673 248.743 386.361 246.662 387.403C244.582 388.445 241.208 388.445 239.128 387.403C237.047 386.362 237.047 384.673 239.128 383.631C241.209 382.589 244.582 382.589 246.662 383.631Z" fill="#396783"/>
<path d="M242.896 383.991H237.568V385.516H248.223V383.991H242.896Z" fill="#396783"/>
<path d="M246.662 382.105C248.743 383.147 248.743 384.835 246.662 385.877C244.582 386.917 241.208 386.917 239.128 385.877C237.047 384.835 237.047 383.147 239.128 382.105C241.209 381.063 244.582 381.063 246.662 382.105Z" fill="#4F8FB6"/>
<path d="M243.723 383.753C244.18 383.981 244.18 384.352 243.723 384.582C243.265 384.811 242.525 384.81 242.067 384.582C241.61 384.353 241.61 383.982 242.067 383.753C242.525 383.524 243.266 383.524 243.723 383.753Z" fill="#396783"/>
<path d="M242.896 367.316H241.726V384.167H244.066V367.316H242.896Z" fill="#396783"/>
<path d="M243.723 366.902C244.18 367.13 244.18 367.502 243.723 367.731C243.265 367.959 242.525 367.959 242.067 367.731C241.61 367.502 241.61 367.131 242.067 366.902C242.525 366.673 243.266 366.673 243.723 366.902Z" fill="white"/>
<path d="M247.982 374.742V318.263L244.212 318.616L243.735 371.935C240.485 371.286 238.225 372.637 238.225 372.637L246.399 376.612C246.399 376.612 247.935 375.823 247.982 374.742Z" fill="#467EA2"/>
<path d="M246.398 376.612L238.224 372.638V316.159L246.398 320.133V376.612Z" fill="#35607A"/>
<path d="M238.224 316.159C238.224 316.159 241.531 314.171 245.905 316.159C250.277 318.146 246.399 320.133 246.399 320.133L238.224 316.159Z" fill="#4F8FB6"/>
<path opacity="0.08" d="M198.261 345.417L209.064 346.254L215.903 343.407L236.021 348.171L239.886 346.254L166.082 309.731L188.689 325.043L182.155 329.345L198.261 345.417Z" fill="black"/>
<path d="M198.261 345.414L175.275 334.123V332.72L198.261 344.011V345.414Z" fill="#35607A"/>
<path d="M198.261 344.014L175.275 332.727L182.155 329.345L205.141 340.633L198.261 344.014Z" fill="#4F8FB6"/>
<path d="M205.141 342.033L198.261 345.417V344.013L205.141 340.63V342.033Z" fill="#467EA2"/>
<path d="M194.726 338.811L193.461 339.61L185.69 316.63L186.955 315.996L194.726 319.888V338.811Z" fill="#467EA2"/>
<path d="M193.461 339.61L185.69 335.719V316.63L193.461 320.52V339.61Z" fill="#35607A"/>
<path d="M226.628 343.898L224.145 345.417L158.756 309.913L156.272 270.825L158.756 269.306L226.628 303.291V343.898Z" fill="#4F8FB6"/>
<path d="M224.145 345.417L156.272 311.432V270.825L224.145 304.81V345.417Z" fill="#35607A"/>
<path d="M224.145 304.81L226.628 303.291V343.898L224.145 345.417V304.81Z" fill="#467EA2"/>
<path opacity="0.08" d="M146.947 319.213L173.489 320.132L159.444 313.021L146.947 319.213Z" fill="black"/>
<path d="M424.544 197.87L361.133 166.119V130.709L424.544 162.459V197.87Z" fill="#B88F86"/>
<path d="M364.272 134.376L363.226 133.852V165.072L422.451 194.727V193.644L364.272 164.514V134.376Z" fill="#876962"/>
<path d="M364.272 134.376V164.514L422.451 193.644V163.507L364.272 134.376Z" fill="#96CCFF"/>
<path d="M424.543 162.459L426.637 161.551V196.962L424.543 197.87V162.459Z" fill="#876962"/>
<path d="M361.133 130.709L363.226 129.801L426.637 161.551L424.544 162.459L361.133 130.709Z" fill="#C2968C"/>
<path d="M364.271 164.514C364.271 164.514 376.362 159.982 392.838 162.52C409.313 165.058 422.451 163.507 422.451 163.507V193.644L364.271 164.514Z" fill="#5EB2FF"/>
<path opacity="0.08" d="M361.133 166.119L372.125 173.033L427.279 200.453L427.778 166.813L426.637 161.551L424.544 162.459V197.87L361.133 166.119Z" fill="black"/>
<path d="M336.433 213.761L265.977 178.875V55.8311L336.433 90.7175V213.761Z" fill="#B88F86"/>
<path d="M271.561 61.4228L268.77 60.0243V177.477L291.293 188.364V185.765L271.561 176.277V61.4228Z" fill="#82655E"/>
<path d="M271.561 61.4228V176.277L291.293 185.765V70.9111L271.561 61.4228Z" fill="#9E7B73"/>
<path d="M296.97 73.7536L294.178 72.3552V189.808L333.641 209.568V206.969L296.97 188.608V73.7536Z" fill="#82655E"/>
<path d="M296.97 73.7536V188.608L333.641 206.969V92.1149L296.97 73.7536Z" fill="#A8D9F9"/>
<path d="M265.977 55.8311L252.189 49.1254V171.755L265.977 178.875V55.8311Z" fill="#D1B0A3"/>
<path d="M259.082 52.4777V167.65L252.189 171.755V49.1254L259.082 52.4777Z" fill="#B3968B"/>
<path d="M259.083 167.65L252.189 171.755L244.5 176.205L260.727 183.126L265.977 178.875V153.985L259.083 157.7V167.65Z" fill="#FFFAF2"/>
<path opacity="0.1" d="M252.189 70.8837L255.238 169.939L265.977 171.755V55.8311L252.189 49.1254V70.8837Z" fill="black"/>
<path d="M304.085 77.3162L333.641 206.969L296.97 188.608V73.7536L304.085 77.3162Z" fill="#93CAED"/>
<path opacity="0.1" d="M271.561 61.4228L291.293 185.765L271.561 176.277V61.4228Z" fill="black"/>
<path d="M26.805 224.265L20.9106 221.376L88.8651 187.28L94.4298 190.114L26.805 224.265Z" fill="#F0C9BB"/>
<path d="M94.4299 190.114V126.487L88.8652 124.915V187.28L94.4299 190.114Z" fill="#B89B8F"/>
<path d="M20.9106 221.474L88.8651 187.28V124.915L20.9106 159.11V221.474Z" fill="#B88F86"/>
<path d="M85.0866 128.698L86.9753 127.753V186.334L56.4985 201.686V199.928L85.0866 185.522V128.698Z" fill="#876962"/>
<path d="M85.0866 128.698V185.522L56.4985 199.928V143.105L85.0866 128.698Z" fill="#D6EFFF"/>
<path d="M52.6573 145.028L54.547 144.083V202.664L22.8003 218.637V216.879L52.6573 201.852V145.028Z" fill="#876962"/>
<path d="M52.6573 145.028V201.852L22.8003 216.879V160.056L52.6573 145.028Z" fill="#D6EFFF"/>
<path opacity="0.1" d="M52.6572 145.028L54.5469 150.114V144.083L52.6572 145.028Z" fill="black"/>
<path opacity="0.1" d="M85.0869 128.698L86.9756 134.766V127.753L85.0869 128.698Z" fill="black"/>
<path opacity="0.1" d="M56.4985 199.928L60.1268 199.859L56.4985 201.686V199.928Z" fill="black"/>
<path opacity="0.1" d="M22.8003 218.637V216.879L27.66 216.191L22.8003 218.637Z" fill="black"/>
<path opacity="0.25" d="M47.6211 147.563L22.8003 203.668V160.056L47.6211 147.563Z" fill="white"/>
<path opacity="0.25" d="M81.3204 130.634L56.4985 186.738V143.126L81.3204 130.634Z" fill="white"/>
<path d="M26.8049 224.265V152.041L12.6265 164.313L18.2368 222.457L26.8049 224.265Z" fill="#D1B0A3"/>
<path d="M94.4296 126.487L21.7554 163.555L25.2295 152.041L84.3694 121.763L94.4296 126.487Z" fill="#D1B0A3"/>
</svg>
